<svg height="682.66669pt" viewBox="-21 -21 682.66669 682.66669" width="682.66669pt" xmlns="http://www.w3.org/2000/svg"><path d="m320 112.5c-113.628906 0-207.5 93.871094-207.5 207.5 0 113.625 93.871094 207.5 207.5 207.5s207.5-93.875 207.5-207.5c0-113.628906-93.871094-207.5-207.5-207.5zm0 0" fill="#7ed8f6"/><path d="m527.5 320c0 113.625-93.871094 207.5-207.5 207.5v-415c113.628906 0 207.5 93.871094 207.5 207.5zm0 0" fill="#6aa9ff"/><path d="m640 320c0 71.996094-24.75 144.125-70.125 200.375l-29.25-23.25c40.5-50.625 61.875-112.628906 61.875-177.125 0-155.25-127.25-282.5-282.5-282.5s-282.5 127.25-282.5 282.5 127.25 282.5 282.5 282.5c49.5 0 97.875-13.125 140.625-37.875l18.75 32.625c-48.375 28.125-103.5 42.75-159.375 42.75-175.875 0-320-144.125-320-320s144.125-320 320-320 320 144.125 320 320zm0 0" fill="#ff9100"/><g fill="#ff641a"><path d="m460.625 564.625 18.75 32.625c-48.375 28.125-103.5 42.75-159.375 42.75v-37.5c49.5 0 97.875-13.125 140.625-37.875zm0 0"/><path d="m640 320c0 71.996094-24.75 144.125-70.125 200.375l-29.25-23.25c40.5-50.625 61.875-112.628906 61.875-177.125 0-155.25-127.25-282.5-282.5-282.5v-37.5c175.875 0 320 144.125 320 320zm0 0"/><path d="m640 527.5h-112.5v-112.5h37.5v75h75zm0 0"/></g><path d="m385.625 245c-27.75 0-48.003906 19.875-65.625 42.75-17.621094-22.875-37.875-42.75-65.625-42.75-43.5 0-66 37.5-66 75 0 37.125 22.5 75 66 75 27.75 0 48.003906-19.878906 65.625-42.75 17.621094 22.875 37.875 42.75 65.625 42.75 43.5 0 66-37.875 66-75 0-37.5-22.5-75-66-75zm-131.25 112.5c-22.5 0-28.5-23.625-28.5-37.5s6-37.5 28.5-37.5c14.25 0 28.5 17.621094 42.75 37.5-14.25 19.875-28.5 37.5-42.75 37.5zm131.25 0c-14.25 0-28.5-17.625-42.75-37.5 14.25-19.878906 28.5-37.5 42.75-37.5 22.5 0 28.5 23.625 28.5 37.5s-6 37.5-28.5 37.5zm0 0" fill="#f2f6fc"/><path d="m385.625 245c-27.75 0-48.003906 19.875-65.625 42.75v64.5c17.621094 22.875 37.875 42.75 65.625 42.75 43.5 0 66-37.875 66-75 0-37.5-22.5-75-66-75zm0 112.5c-14.25 0-28.5-17.625-42.75-37.5 14.25-19.878906 28.5-37.5 42.75-37.5 22.5 0 28.5 23.625 28.5 37.5s-6 37.5-28.5 37.5zm0 0" fill="#dce1eb"/></svg>